<svg width="30" height="22" viewBox="0 0 30 22" fill="none" xmlns="http://www.w3.org/2000/svg">
<path fill-rule="evenodd" clip-rule="evenodd" d="M3.22266 14.3331H2C1.44772 14.3331 1 14.7808 1 15.3331V19.9998C1 20.552 1.44772 20.9998 2 20.9998H27.7778C28.3301 20.9998 28.7778 20.552 28.7778 19.9998V15.3331C28.7778 14.7808 28.3301 14.3331 27.7778 14.3331H26.556V12.6666C26.556 6.22328 21.3326 0.999933 14.8893 0.999933C8.446 0.999933 3.22266 6.22328 3.22266 12.6666V14.3331Z" fill="#BB0000"/>
<path d="M3.22266 14.3331V15.3331H4.22266V14.3331H3.22266ZM26.556 14.3331H25.556V15.3331H26.556V14.3331ZM3.22266 13.3331H2V15.3331H3.22266V13.3331ZM2 13.3331C0.895432 13.3331 0 14.2285 0 15.3331H2H2V13.3331ZM0 15.3331V19.9998H2V15.3331H0ZM0 19.9998C0 21.1043 0.895433 21.9998 2 21.9998V19.9998V19.9998H0ZM2 21.9998H27.7778V19.9998H2V21.9998ZM27.7778 21.9998C28.8823 21.9998 29.7778 21.1043 29.7778 19.9998H27.7778V21.9998ZM29.7778 19.9998V15.3331H27.7778V19.9998H29.7778ZM29.7778 15.3331C29.7778 14.2285 28.8823 13.3331 27.7778 13.3331V15.3331V15.3331H29.7778ZM27.7778 13.3331H26.556V15.3331H27.7778V13.3331ZM27.556 14.3331V12.6666H25.556V14.3331H27.556ZM27.556 12.6666C27.556 5.671 21.8849 -6.67572e-05 14.8893 -6.67572e-05V1.99993C20.7804 1.99993 25.556 6.77557 25.556 12.6666H27.556ZM14.8893 -6.67572e-05C7.89372 -6.67572e-05 2.22266 5.67099 2.22266 12.6666H4.22266C4.22266 6.77556 8.99829 1.99993 14.8893 1.99993V-6.67572e-05ZM2.22266 12.6666V14.3331H4.22266V12.6666H2.22266Z" fill="black"/>
<circle r="5" transform="matrix(1 0 0 -1 14.8877 9.22168)" fill="black"/>
<circle r="3.07692" transform="matrix(1 0 0 -1 14.8465 9.3076)" fill="#BB0000"/>
</svg>
